<svg xmlns="http://www.w3.org/2000/svg" viewBox="0 0 479.69 127.07"><defs><style>.cls-1{font-size:90px;font-family:TwCenMT-Regular, Tw Cen MT;letter-spacing:0.04em;}.cls-2{fill:#00d4be;}.cls-3{fill:#2e2d3b;}.cls-4{fill:#fec917;}</style></defs><title>Asset 18</title><g id="Layer_2" data-name="Layer 2"><g id="Layer_1-2" data-name="Layer 1"><text class="cls-1" transform="translate(124.21 101.2)">WE<tspan class="cls-2" x="136.98" y="0">LAND</tspan></text><path class="cls-3" d="M67.56,79q-2.32,3.73-4.86,7.38a197.07,197.07,0,0,1-33.38-9A195.69,195.69,0,0,1,.82,64.31C1.28,58.87,2,53.49,2.91,48.2c1,.71,2,1.41,3,2.09A197.25,197.25,0,0,0,67.56,79Z"/><path class="cls-2" d="M61.4,96.05h0l-2.52.18c-1.07.08-2.26.15-3.56.21,0,0-5,.26-10.09.26a199.76,199.76,0,0,1-45-5.12C.08,88.48,0,85.36,0,82.23c0-1,0-2.1,0-3.14a197.34,197.34,0,0,0,47,11q6.13.68,12.39,1c1.89.09,3.8.15,5.72.17"/><path class="cls-4" d="M107.16,85.5c-.64.61-1.27,1.19-1.92,1.75a9.14,9.14,0,0,1-.74.67c-.53.49-1.07,1-1.61,1.45a198.4,198.4,0,0,1-45.61,29.85A199.3,199.3,0,0,0,93.15,90.71c.38-.38.76-.78,1.13-1.16a.27.27,0,0,0,.12-.12q-5.5-.06-10.94-.44c1.59-1.79,3.16-3.64,4.67-5.5,3.5.56,7.05,1,10.61,1.36C101.53,85.14,104.33,85.35,107.16,85.5Z"/><path class="cls-2" d="M65.14,91.22h0c.78-1,1.76-2.37,2.9-3.95.55-.79,2.37-3.39,4.7-6.92,1.26-1.92,2.5-3.87,3.69-5.84q-2.58-.81-5.14-1.74A198.49,198.49,0,0,1,5.8,34.25C7,29.44,8.33,24.72,9.87,20A195.73,195.73,0,0,1,17.69,0,122.47,122.47,0,0,0,76.16,63.74c1.65.85,3.31,1.64,5,2.4,3.51,1.57,7.11,3,10.8,4.24C91,71.75,90,73.11,89,74.45c-.78,1-1.56,2-2.35,3-1.28,1.68-2.63,3.33-4,5-1.66,2-3.4,4-5.18,6-.79.92-1.62,1.83-2.47,2.71-.51.53-1.84,2-3.66,3.82,0,0-2.61,2.66-5.2,5.12C59.43,106.52,52,112.34,52,112.34a198,198,0,0,1-21.59,14.73,197.23,197.23,0,0,0,16.35-14.65A198.41,198.41,0,0,0,61.39,96.05h0"/></g></g></svg>