<svg xmlns="http://www.w3.org/2000/svg" viewBox="0 0 105.47 173.48"><defs><style>.cls-1{fill:#2e2d3b;}.cls-2,.cls-5{fill:#00d4be;}.cls-3{fill:#fec917;}.cls-4{font-size:40.46px;font-family:TwCenMT-Regular, Tw Cen MT;letter-spacing:0.04em;}.cls-5{letter-spacing:0.04em;}</style></defs><title>Asset 17</title><g id="Layer_2" data-name="Layer 2"><g id="Layer_1-2" data-name="Layer 1"><path class="cls-1" d="M66.49,77.76C65,80.21,63.37,82.64,61.72,85a191.9,191.9,0,0,1-32.86-8.85A193.72,193.72,0,0,1,.8,63.3C1.26,57.94,2,52.65,2.87,47.44c1,.7,1.93,1.39,2.91,2.06A194.1,194.1,0,0,0,66.49,77.76Z"/><path class="cls-2" d="M60.43,94.53h0L58,94.71c-1.05.08-2.22.15-3.5.21,0,0-5,.25-9.93.25a196.41,196.41,0,0,1-44.3-5C.07,87.09,0,84,0,80.93c0-1,0-2.06,0-3.08A194.78,194.78,0,0,0,46.28,88.67q6,.66,12.2,1c1.87.08,3.74.14,5.64.16"/><path class="cls-3" d="M105.47,84.15c-.63.61-1.25,1.18-1.89,1.73a9.06,9.06,0,0,1-.73.66c-.52.48-1,1-1.58,1.42a195.43,195.43,0,0,1-44.89,29.38A196.67,196.67,0,0,0,91.69,89.28c.37-.37.74-.77,1.1-1.14a.27.27,0,0,0,.12-.12c-3.61,0-7.21-.18-10.77-.43,1.57-1.76,3.12-3.58,4.6-5.42,3.45.56,6.94,1,10.45,1.34Q101.3,83.95,105.47,84.15Z"/><path class="cls-2" d="M64.12,89.78h0c.76-1,1.73-2.33,2.84-3.89.55-.77,2.34-3.33,4.64-6.81,1.24-1.88,2.45-3.81,3.62-5.75q-2.53-.79-5-1.7A195.36,195.36,0,0,1,5.71,33.71c1.14-4.74,2.49-9.38,4-14A191.05,191.05,0,0,1,17.41,0,120.54,120.54,0,0,0,75,62.73c1.62.84,3.26,1.62,4.93,2.37,3.45,1.55,7,3,10.63,4.17q-1.41,2-2.88,4c-.77,1-1.54,2-2.32,3-1.26,1.65-2.58,3.28-3.92,4.88-1.63,2-3.34,4-5.09,5.89-.78.91-1.6,1.8-2.43,2.67-.5.52-1.81,1.94-3.61,3.76,0,0-2.57,2.62-5.12,5-6.66,6.32-14,12-14,12a195.55,195.55,0,0,1-21.25,14.5A194.84,194.84,0,0,0,46,110.65,195.82,195.82,0,0,0,60.42,94.54h0"/><text class="cls-4" transform="translate(0.79 162.24)">B<tspan class="cls-5" x="21.93" y="0">FINE</tspan></text></g></g></svg>