<svg xmlns="http://www.w3.org/2000/svg" viewBox="0 0 162.39 176.63"><defs><style>.cls-1{font-size:41.11px;font-family:TwCenMT-Regular, Tw Cen MT;letter-spacing:0.04em;}.cls-2{fill:#00d4be;}.cls-3{fill:#2e2d3b;}.cls-4{fill:#fec917;}</style></defs><title>Asset 16</title><g id="Layer_2" data-name="Layer 2"><g id="Layer_1-2" data-name="Layer 1"><text class="cls-1" transform="translate(0 165.2)">WE<tspan class="cls-2" x="62.57" y="0">LAND</tspan></text><path class="cls-3" d="M91.35,79Q89,82.75,86.49,86.39a197.07,197.07,0,0,1-33.38-9A196.3,196.3,0,0,1,24.6,64.31q.7-8.16,2.1-16.11c1,.71,2,1.41,3,2.09A197.25,197.25,0,0,0,91.35,79Z"/><path class="cls-2" d="M86.06,96.05h0l-2.55.18c-1.08.08-2.29.15-3.61.21,0,0-5.13.26-10.23.26A205.4,205.4,0,0,1,24,91.58c-.14-3.1-.22-6.22-.22-9.35,0-1,0-2.1,0-3.14a202.55,202.55,0,0,0,47.67,11q6.23.68,12.56,1c1.93.09,3.86.15,5.81.17"/><path class="cls-4" d="M131,85.5c-.64.61-1.27,1.19-1.92,1.75a9.14,9.14,0,0,1-.74.67c-.53.49-1.07,1-1.61,1.45a198.4,198.4,0,0,1-45.61,29.85,199.3,199.3,0,0,0,35.87-28.51c.38-.38.76-.78,1.13-1.16a.27.27,0,0,0,.12-.12q-5.5-.06-10.94-.44c1.59-1.79,3.16-3.64,4.66-5.5,3.51.56,7.06,1,10.62,1.36C125.32,85.14,128.12,85.35,131,85.5Z"/><path class="cls-2" d="M88.93,91.22h0c.78-1,1.76-2.37,2.89-3.95.56-.79,2.38-3.39,4.71-6.92,1.26-1.92,2.5-3.87,3.69-5.84q-2.58-.81-5.14-1.74A198.49,198.49,0,0,1,29.59,34.25c1.16-4.81,2.53-9.53,4.07-14.21A195.73,195.73,0,0,1,41.48,0,122.47,122.47,0,0,0,100,63.74c1.65.85,3.31,1.64,5,2.4,3.51,1.57,7.11,3,10.8,4.24-1,1.37-1.93,2.73-2.93,4.07-.78,1-1.56,2-2.35,3-1.29,1.68-2.63,3.33-4,5-1.66,2-3.4,4-5.18,6-.79.92-1.62,1.83-2.47,2.71-.51.53-1.84,2-3.66,3.82,0,0-2.61,2.66-5.2,5.12-6.77,6.42-14.19,12.24-14.19,12.24a198,198,0,0,1-21.59,14.73,197.23,197.23,0,0,0,16.35-14.65A198.41,198.41,0,0,0,85.18,96.05h0"/></g></g></svg>